<svg xmlns="http://www.w3.org/2000/svg" width="16" height="16" viewBox="0 0 16 16" fill="none" stroke-width="1.5"><desc>锚_对象位置符</desc><g id="group-0" stroke="#333333" fill="#333333"><path d="M7.99219 4.83334C8.95869 4.83334 9.74219 4.04984 9.74219 3.08334C9.74219 2.11685 8.95869 1.33334 7.99219 1.33334C7.02569 1.33334 6.24219 2.11685 6.24219 3.08334C6.24219 4.04984 7.02569 4.83334 7.99219 4.83334ZM7.99219 4.83334V14.6667M7.99219 14.6667C4.66096 14.6667 2.49219 9.285 2.49219 9.285M7.99219 14.6667C11.3234 14.6667 13.498 9.285 13.498 9.285" stroke-linecap="round" stroke-linejoin="round" fill="none" vector-effect="non-scaling-stroke"/><path d="M1.78124 7.8448C1.88086 7.47302 2.3456 7.34849 2.61776 7.62066L4.14869 9.15159C4.42086 9.42376 4.29633 9.88849 3.92455 9.98811L1.83326 10.5485C1.46147 10.6481 1.12127 10.3079 1.22088 9.93609L1.78124 7.8448Z" stroke="none"/><path d="M14.2188 7.8448C14.1191 7.47302 13.6544 7.34849 13.3822 7.62066L11.8513 9.15159C11.5791 9.42376 11.7037 9.88849 12.0755 9.98811L14.1667 10.5485C14.5385 10.6481 14.8787 10.3079 14.7791 9.93609L14.2188 7.8448Z" stroke="none"/></g></svg>