<svg xmlns="http://www.w3.org/2000/svg" width="16" height="16" viewBox="0 0 16 16" fill="none"><desc>压缩包格式16</desc><path d="M0 2C0 0.895431 0.895431 0 2 0H14C15.1046 0 16 0.895431 16 2V14C16 15.1046 15.1046 16 14 16H2C0.895431 16 0 15.1046 0 14V2Z" fill="#6F7B84"/><path d="M2 16C0.895431 16 0 15.1046 0 14L16 14C16 15.1046 15.1046 16 14 16L2 16Z" fill="#626D75"/><path d="M8 16L8 14L16 14C16 15.1046 15.1046 16 14 16L8 16Z" fill="#8999A3"/><path fill-rule="evenodd" clip-rule="evenodd" d="M5 2.5H11V7H8V8.5H5V2.5ZM6.5 4H9.5V5.5H6.5V4Z" fill="white"/><path d="M8 10H11V8.5H8V10Z" fill="white"/><path d="M8 10H5V11.5H8V10Z" fill="white"/></svg>