<svg xmlns="http://www.w3.org/2000/svg" width="100" height="100" viewBox="0 0 100 100" fill="none"><desc>无内容2_通用</desc><path opacity="0.4" d="M13.9004 19.6C13.9004 15.4026 17.303 12 21.5004 12H66.9504V26.25H13.9004V19.6Z" fill="#C0CADD"/><path opacity="0.4" fill-rule="evenodd" clip-rule="evenodd" d="M86.1004 26.25H13.9004V80.4C13.9004 84.5974 17.303 88 21.5004 88H78.5004C82.6978 88 86.1004 84.5974 86.1004 80.4V26.25ZM35 60C37.4853 60 39.5 57.9853 39.5 55.5C39.5 53.0147 37.4853 51 35 51C32.5147 51 30.5 53.0147 30.5 55.5C30.5 57.9853 32.5147 60 35 60ZM50 60C52.4853 60 54.5 57.9853 54.5 55.5C54.5 53.0147 52.4853 51 50 51C47.5147 51 45.5 53.0147 45.5 55.5C45.5 57.9853 47.5147 60 50 60ZM69.5 55.5C69.5 57.9853 67.4853 60 65 60C62.5147 60 60.5 57.9853 60.5 55.5C60.5 53.0147 62.5147 51 65 51C67.4853 51 69.5 53.0147 69.5 55.5Z" fill="#8199B9"/><path opacity="0.4" d="M66.95 12H78.5C82.6973 12 86.1 15.4026 86.1 19.6V26.25H66.95V12Z" fill="#557191"/><path opacity="0.5" fill-rule="evenodd" clip-rule="evenodd" d="M39.5 55.5C39.5 57.9853 37.4853 60 35 60C32.5147 60 30.5 57.9853 30.5 55.5C30.5 53.0147 32.5147 51 35 51C37.4853 51 39.5 53.0147 39.5 55.5ZM54.5 55.5C54.5 57.9853 52.4853 60 50 60C47.5147 60 45.5 57.9853 45.5 55.5C45.5 53.0147 47.5147 51 50 51C52.4853 51 54.5 53.0147 54.5 55.5ZM65 60C67.4853 60 69.5 57.9853 69.5 55.5C69.5 53.0147 67.4853 51 65 51C62.5147 51 60.5 53.0147 60.5 55.5C60.5 57.9853 62.5147 60 65 60Z" fill="white" fill-opacity="0.7"/></svg>