<svg xmlns="http://www.w3.org/2000/svg" width="16" height="16" viewBox="0 0 16 16" fill="none" stroke-width="1.5"><desc>文档合并</desc><g id="group-1" stroke="#3B64FC" fill="#3B64FC"><path d="M9 5.25H6.25V8.24703M8 10.2463H10.75V7" fill="none" vector-effect="non-scaling-stroke"/></g><g id="group-0" stroke="#333333" fill="#333333"><path d="M10.75 5.25V3.12427C10.75 3.0447 10.7184 2.96839 10.6622 2.91213L9.08785 1.33787C9.03159 1.28161 8.95528 1.25 8.87572 1.25H2.55C2.38431 1.25 2.24999 1.38619 2.25 1.55188C2.25025 5.32911 2.24984 6.17328 2.25008 9.95053C2.25009 10.1162 2.3844 10.2524 2.55008 10.2524H6.25359M10.75 5.25V6M10.75 5.25H12.8757C12.9553 5.25 13.0316 5.28161 13.0878 5.33786L14.6622 6.91213C14.7184 6.96839 14.75 7.04709 14.75 7.12666V14.4497C14.75 14.6154 14.6157 14.75 14.45 14.75H6.55005C6.38438 14.75 6.25007 14.6148 6.25006 14.4492C6.24994 12.6338 6.25264 11.4432 6.25359 10.2524M6.25359 10.2524C6.25378 10.0048 6.2539 9.75715 6.25391 9.50391" fill="none" vector-effect="non-scaling-stroke"/></g></svg>