<svg xmlns="http://www.w3.org/2000/svg" width="16" height="16" viewBox="0 0 16 16" fill="none" stroke-width="1"><desc>成功_完成</desc><g id="group-0" stroke="#418F1F" fill="#418F1F"><path d="M8 16C12.4183 16 16 12.4183 16 8C16 3.58172 12.4183 0 8 0C3.58172 0 0 3.58172 0 8C0 12.4183 3.58172 16 8 16Z" stroke="none"/></g><g id="group-1" stroke="white" fill="white"><path fill-rule="evenodd" clip-rule="evenodd" d="M12.6011 5.19891C12.933 5.53086 12.933 6.06905 12.6011 6.40099L7.78121 11.2208C7.44926 11.5528 6.91107 11.5528 6.57913 11.2208L3.89898 8.5407C3.56704 8.20876 3.56704 7.67057 3.89898 7.33862C4.23093 7.00668 4.76912 7.00668 5.10107 7.33862L7.18017 9.41772L11.399 5.19891C11.7309 4.86696 12.2691 4.86696 12.6011 5.19891Z" stroke="none"/></g></svg>